<?xml version="1.0" encoding="UTF-8" standalone="no"?><!DOCTYPE svg PUBLIC "-//W3C//DTD SVG 1.1//EN" "http://www.w3.org/Graphics/SVG/1.1/DTD/svg11.dtd"><svg width="100%" height="100%" viewBox="0 0 2250 1384" version="1.1" xmlns="http://www.w3.org/2000/svg" xmlns:xlink="http://www.w3.org/1999/xlink" xml:space="preserve" xmlns:serif="http://www.serif.com/" style="fill-rule:evenodd;clip-rule:evenodd;stroke-linejoin:round;stroke-miterlimit:2;"><rect id="Artboard1" x="0" y="0" width="2250" height="1383.82" style="fill:none;"/><clipPath id="_clip1"><rect x="0" y="0" width="2250" height="1383.82"/></clipPath><g clip-path="url(#_clip1)"><g><g><path d="M1580.7,1.734c-62.548,11.515 -102.852,28.788 -130.069,55.744c-30.882,30.62 -42.921,65.689 -40.565,119.339c2.094,49.725 14.656,77.99 51.295,115.152c25.909,26.171 49.201,42.136 90.289,61.502c27.48,12.824 41.874,18.843 80.868,33.76c8.899,3.403 30.882,11.777 48.94,18.582c36.116,13.87 80.606,35.069 92.907,44.49c38.471,29.05 51.033,62.81 38.994,103.637c-12.562,42.92 -59.146,67.783 -126.143,67.783c-32.452,-0 -66.474,-6.281 -93.43,-17.011c-29.312,-11.777 -35.593,-17.273 -55.221,-47.893c-9.945,-15.441 -28.526,-44.229 -41.612,-63.857c-12.824,-19.628 -35.33,-54.174 -49.724,-76.419c-26.433,-41.088 -30.359,-44.752 -40.304,-38.471c-3.664,2.355 -2.355,20.936 7.59,98.402c1.308,9.945 4.711,39.518 7.851,65.427c2.879,25.91 6.019,49.463 6.543,52.342c2.094,9.683 71.708,31.929 134.518,43.182c134.78,24.339 252.288,-0.262 308.555,-64.642c25.648,-29.311 37.163,-63.072 37.424,-109.918c0,-61.501 -19.104,-104.945 -64.118,-146.295c-23.031,-20.937 -21.46,-19.89 -48.94,-35.592c-28.788,-16.488 -59.408,-30.359 -135.042,-60.717c-76.942,-30.881 -106.515,-45.537 -125.62,-63.072c-20.937,-18.843 -28.003,-34.807 -26.432,-59.146c3.663,-50.51 48.677,-79.559 122.479,-79.036c44.491,0.523 89.243,14.394 111.227,34.284c6.804,6.281 33.498,45.799 119.601,177.439l10.468,15.964l9.945,-2.356l9.683,-2.617l-7.328,-48.678c-4.187,-26.956 -10.73,-71.708 -14.655,-99.711l-7.328,-50.509l-13.086,-4.973c-26.432,-10.468 -76.942,-23.815 -113.843,-30.358c-30.358,-5.234 -48.678,-6.805 -90.29,-7.328c-28.788,-0.523 -58.099,0.262 -65.427,1.57Z" style="fill:#00f;fill-rule:nonzero;"/><path d="M341.907,8.539c-2.356,2.617 -1.309,183.458 1.308,213.554c4.188,47.108 16.226,85.056 37.948,118.554c9.683,15.441 40.827,48.155 54.435,57.315c3.926,2.878 8.637,6.542 10.469,7.851c1.57,1.57 8.113,6.543 14.656,10.992c18.319,12.562 37.686,32.975 44.752,47.107c6.281,12.3 6.281,13.871 7.066,94.215l0.785,81.915l132.948,0l0.262,-79.821c-0,-74.325 0.523,-81.13 5.496,-95c6.804,-18.058 28.003,-40.042 57.314,-59.408c26.171,-17.011 58.623,-50.51 73.802,-76.158c13.87,-23.292 26.433,-58.099 31.405,-87.41c2.355,-13.609 3.402,-52.08 3.402,-126.929l0,-107.301l-60.716,-0.785l-60.455,-0.785l-1.309,105.469c-1.308,114.105 -1.832,120.386 -16.749,149.697c-7.851,15.441 -29.835,37.948 -42.92,44.229c-14.394,6.804 -38.733,12.3 -53.651,12.3c-46.06,0 -83.223,-21.198 -101.804,-57.837c-14.394,-28.003 -15.179,-35.069 -16.226,-148.128l-1.309,-105.207l-59.669,0c-32.714,0 -60.455,0.786 -61.24,1.571Z" style="fill:#00f;fill-rule:nonzero;"/><path d="M922.639,9.847c-0.524,1.832 -1.57,43.967 -2.094,93.692c-1.308,113.582 -2.355,119.863 -30.62,185.813c-23.292,54.959 -25.386,63.596 -20.937,79.822c5.758,20.413 25.91,32.713 45.276,27.217c4.973,-1.308 36.639,-25.909 77.728,-60.193c38.209,-31.667 71.97,-58.884 75.372,-60.193c15.702,-6.019 28.526,0.785 31.143,16.488c2.879,18.581 -4.449,27.741 -76.157,94.738c-66.998,62.549 -76.419,73.279 -88.719,97.094c-9.945,19.89 -12.301,38.733 -12.301,99.973l0,55.744l392.564,0l-0,-104.683l-262.494,-0l1.57,-33.499c0.785,-18.581 3.14,-39.256 5.496,-46.846c6.019,-19.366 23.03,-40.827 73.016,-91.86c47.108,-48.416 54.959,-59.931 54.698,-80.868c-0.524,-23.292 -12.301,-36.639 -37.686,-42.658c-21.984,-5.496 -33.761,-0.524 -87.149,35.33c-59.147,39.78 -102.59,69.353 -124.051,84.532c-31.666,22.246 -53.912,15.703 -42.135,-12.3c3.403,-8.375 14.394,-17.273 89.766,-72.232c54.959,-39.779 63.334,-57.052 66.475,-134.256l1.57,-42.397l260.924,-0l-0.524,-45.276l-0.785,-45.014l-194.45,-0.785c-154.146,-0.523 -194.449,0 -195.496,2.617Z" style="fill:#00f;fill-rule:nonzero;"/></g><g><path d="M1352.34,736.613c-109.394,15.702 -157.548,105.207 -108.347,202.301c7.066,14.132 23.815,41.612 26.956,43.967c0.785,0.785 5.757,6.543 10.992,13.085c14.655,18.058 28.003,31.667 49.724,50.249c24.863,21.46 99.45,76.942 148.913,110.964c25.386,17.273 46.846,34.546 64.38,52.08c42.659,42.135 58.623,68.568 60.717,98.926c0.785,16.488 0.261,19.89 -5.235,28.003c-24.862,37.163 -102.589,26.171 -170.11,-24.077c-12.039,-8.898 -46.323,-40.827 -76.681,-71.185c-69.353,-69.876 -82.7,-80.083 -108.348,-84.27c-45.799,-7.328 -83.485,45.537 -61.763,86.364c19.105,36.115 96.571,76.419 197.329,102.59c136.873,35.592 157.025,39.256 193.403,35.069c46.584,-5.496 89.504,-30.359 110.964,-64.119c27.218,-43.182 28.265,-107.301 2.617,-160.689c-3.664,-8.113 -13.085,-24.078 -20.413,-35.593c-34.284,-53.127 -68.568,-82.7 -206.488,-179.794c-21.722,-15.179 -62.549,-53.127 -76.943,-71.446c-3.402,-4.449 -10.206,-16.488 -15.179,-26.956c-8.113,-16.75 -9.16,-20.675 -8.113,-35.331c1.832,-29.573 16.488,-42.397 48.155,-42.135c28.264,0.261 49.462,11.777 88.981,47.631c17.011,15.702 41.873,40.041 54.697,54.174c26.171,28.787 55.22,53.126 75.372,63.333c30.358,15.179 66.997,3.926 80.345,-24.862c12.038,-25.124 5.234,-56.529 -15.18,-69.877c-10.991,-7.327 -44.228,-20.413 -92.645,-36.901c-18.319,-6.281 -48.416,-17.272 -66.735,-24.862c-18.582,-7.328 -41.612,-16.226 -51.819,-19.89c-40.303,-13.87 -97.355,-21.198 -129.546,-16.749Z" style="fill:#00f;fill-rule:nonzero;"/><path d="M561.977,748.651c0,9.684 0.262,9.945 21.984,12.824c14.394,1.832 29.05,13.086 36.116,27.48l6.019,12.038l0.785,248.362c0.785,281.599 1.57,268.775 -18.843,288.142c-10.73,10.468 -28.264,17.011 -45.014,17.011c-5.496,-0 -6.281,1.308 -6.281,9.159l0,9.16l528.391,0l1.308,-11.253c1.57,-12.824 14.656,-211.461 14.656,-222.453c-0,-6.804 -0.785,-7.328 -8.113,-6.543c-8.113,0.786 -8.375,1.047 -17.011,33.238c-18.058,65.95 -43.182,114.628 -72.494,140.275c-14.917,13.086 -45.014,28.788 -59.408,31.406c-4.972,0.785 -13.347,2.617 -18.319,3.925c-16.226,4.188 -70.4,8.375 -95.262,7.328c-27.218,-1.047 -38.21,-5.758 -47.893,-19.89c-8.113,-12.3 -8.898,-27.479 -8.113,-155.978l0.785,-114.891l48.155,0.262c26.432,0.262 54.697,1.57 62.81,3.402c48.154,9.945 70.399,42.135 75.372,109.395l1.57,23.815l17.535,0l-0,-293.114l-7.852,0c-4.187,0 -7.851,0.785 -7.851,1.832c-2.617,50.772 -13.87,83.485 -37.163,105.731c-24.077,23.03 -59.407,32.19 -121.171,30.62l-31.405,-0.786l0,-123.003c0,-118.292 0.262,-123.265 5.234,-131.901c7.852,-13.609 21.984,-19.367 48.678,-20.675c28.265,-1.309 77.989,3.402 103.899,10.207c18.843,4.71 45.014,15.964 51.033,21.721c1.832,1.571 7.066,6.281 12.039,10.207c29.311,24.339 53.388,73.017 73.278,149.698c6.804,25.909 7.066,26.17 15.441,26.956c6.543,0.785 8.375,-0 8.375,-3.926c-0,-9.16 -13.086,-211.723 -14.656,-225.331l-1.309,-13.609l-257.783,-0l-257.522,0.261l0,8.898Z" style="fill:#00f;fill-rule:nonzero;"/><path d="M1779.71,741.324c-6.019,1.046 -6.019,1.308 -6.019,53.388l-0,52.08l162.259,0l0,526.035l151.791,0l0,-526.035l162.26,0l0,-107.3l-232.136,0.261c-127.975,0.262 -235.014,1.047 -238.155,1.571Z" style="fill:#00f;fill-rule:nonzero;"/><path d="M168.105,747.605c-36.639,5.496 -68.044,21.198 -93.691,46.322c-24.078,23.554 -45.276,71.185 -56.529,126.144c-19.89,96.832 -23.554,244.436 -9.16,372.935c4.972,43.444 21.198,68.044 52.865,79.821c20.937,7.852 41.873,7.066 62.287,-2.617c19.628,-9.421 30.096,-21.46 36.639,-41.35c4.711,-14.656 4.449,-16.226 -2.617,-87.672c-12.824,-129.023 -12.3,-151.268 4.449,-161.475c16.488,-10.206 34.284,-6.804 129.284,25.124c64.642,21.46 112.273,29.573 140.276,23.816c12.3,-2.617 30.097,-14.394 37.163,-24.863c15.441,-22.506 17.273,-47.369 5.234,-71.184c-14.394,-28.527 -38.733,-40.042 -80.606,-37.686c-35.593,2.093 -76.419,6.542 -103.899,11.515c-39.256,6.804 -86.887,11.253 -107.039,9.945c-29.573,-2.094 -53.388,-19.105 -61.763,-43.967c-12.562,-36.378 -4.449,-106.778 15.964,-138.968c8.898,-14.394 25.648,-27.479 41.874,-32.452c12.562,-3.925 16.749,-4.187 30.358,-1.308c45.014,8.898 114.89,39.779 186.598,82.961c37.425,22.507 62.81,22.769 84.794,0.524c12.824,-12.824 17.011,-22.769 17.011,-41.612c0.262,-39.518 -23.815,-57.314 -104.16,-77.204c-20.413,-4.972 -49.201,-10.992 -64.381,-13.347c-32.19,-4.973 -137.135,-7.328 -160.951,-3.402Z" style="fill:#00f;fill-rule:nonzero;"/></g></g></g></svg>